<svg id="visual" viewBox="0 0 900 600" width="900" height="600" xmlns="http://www.w3.org/2000/svg" xmlns:xlink="http://www.w3.org/1999/xlink" version="1.1"><rect x="0" y="0" width="900" height="600" fill="#F5F5F5"></rect><defs><linearGradient id="grad1_0" x1="33.3%" y1="0%" x2="100%" y2="100%"><stop offset="20%" stop-color="#f5f5f5" stop-opacity="1"></stop><stop offset="80%" stop-color="#f5f5f5" stop-opacity="1"></stop></linearGradient></defs><defs><linearGradient id="grad2_0" x1="0%" y1="0%" x2="66.7%" y2="100%"><stop offset="20%" stop-color="#f5f5f5" stop-opacity="1"></stop><stop offset="80%" stop-color="#f5f5f5" stop-opacity="1"></stop></linearGradient></defs><g transform="translate(900, 0)"><path d="M0 486.7C-68 483.7 -136 480.7 -186.3 449.7C-236.5 418.7 -269 359.8 -314 314C-358.9 268.1 -416.3 235.4 -447.2 185.2C-478 135.1 -482.4 67.5 -486.7 0L0 0Z" fill="#d0f0c9"></path></g><g transform="translate(0, 600)"><path d="M0 -486.7C59 -463.5 118.1 -440.2 171.4 -413.9C224.8 -387.6 272.5 -358.4 321.7 -321.7C371 -285.1 421.9 -241.1 449.7 -186.3C477.5 -131.4 482.1 -65.7 486.7 0L0 0Z" fill="#d0f0c9"></path></g></svg>